/* XPM */
static char *e32ab447d71348b6b34724a374b382f2aIvuhLEHofoIqcLK[] = {
/* columns rows colors chars-per-pixel */
"100 100 15 1 ",
"  c #1B1F21",
". c #3B2027",
"X c #3D2936",
"o c #52333F",
"O c #7D3833",
"+ c #283540",
"@ c #2F5753",
"# c #3B7D4F",
"$ c #AB5130",
"% c #CF752B",
"& c #8F4D57",
"* c #BD6A62",
"= c #35960B",
"- c #63AB3F",
"; c #6FA8DC",
/* pixels */
"@@;;;;;;;;;;;;;;;;;;;;;;;;;;;;;;;;;;;;;;;;;;;;;;;;;;;;;;;;;;;;;;;;;;;;;;;;;;;;;;;;;;;;;;;;;;;;;;;;;;",
"@@;;@@@;;;;;;;;;;;;;;;;;;;;;;;;;;;;;;;;;;;;;;;;;;;;;;;;;;;;;;;;;;;;;;;;;;;;;;;;;;;;;;;;;;;;;;;;;;;;;",
"@@ @@@;;;;;;;;;;;;;;;;;;;;;;;;;;;;;;;;;;;;;;;;;;;;;;@;;;;;;;; ;;;;;;;;;;;;;;;;;;;;;;;;;;;;;;;@;;;;;;",
"+ @@@  ;;;;;;;;;;;;;;;;;;;;;;;;;;;;;;;;;;;;;;;;;;;;#-#@;;@;;;  ;;;;;;;;;;;;;;;;;;;;;;;;;;@@@@@;;;@@@",
"+@@@+ @;;;;;;;;;;;;;;;;;;;;;;;;;;;;;;;;;;;;;;;;;;;;+#+@@@;;-;@ ;;;#;;;;;;;;;;;;;;;;;;;;;;@@@@@;;@@@@",
"@@@+ @@ ;+;;;;;;;;;;;;;;;;;;;;;;;;;;;;;;;;;;;;;;;  -#@-@@;@-;@@; ;#;;;;;;;;;;;;;;;;;;;;   @@@ @@@  +",
"@+@ @@@@@@@;+;;;;;;;;;;;;;;;;;;;;;;;;;;;;;;;;;;-;-#-# ##@-@@ @-@@-#;;;;;;;;;;;;@;;;;;+#@@@@@@@##@@+ ",
"@@# @@+@@@@++@@@;;;;;;;;;;;;;;;;;;;;;;;;;;;;;;;-#@##@ # @@-@ --@@-#;#;;;;;;@;;@@;+;;+##@@@@#@###@@@@",
"@@#+@++@+@@+@@@;   +;;;;;;;;;;;;;;;;;;;;;;;;;;  #-##@@---@--@-#---@-#;;;;;;@@;@@;+#+###@@ @#@###@###",
"@##+@##@+++@@@+++@#+ @++;;;;;;;;;;;;;;;;;;;;;;- --##@@------@-#--##-#;#;;+  @ @ @##@-#@--##-@#@@@ +@",
"+# +###@+@@@@@#+@##+@ +  ;;;;;;;;;;;;;;;;;;@@@---##-@---@--------##### ;@@@   ####@#--@--#--@@@###++",
"@#@++++++@@@@@#####+@@   ;;;;;;;;;;;;;;;;;;--@--#--#----@----#-#-##--#@++@@@ -@###@#--#--#---@--####",
"@@###@+@ @@@@+@###@@## @@ ;;;;;;;;;;;;;;;@;-@----#----@-----#----#---## # ----##-------###-#@ #  ###",
"@###@@@@@@@###@@#++@++@@+  @;;;;;;;;;;;;;-@-;@------#--#@------@-----# @@ -#--#----------------###- ",
"#@ ++@@@@@@####@@@###@@@@  +@-;;@;;;;;;;;--@@-#@-###---##--###@####-#---# #@#####-------------######",
"-#@@+ @++++@@@@+####@@@+#--#--@@@;;;;;;;@--@#-#@-###---#--#@-#----#-#-- #--#----------- -##--##----@",
"+###+ @@++@##+@#@@@+@-  #--#--@@--@@;;;;;-@@#----##--#@@####--@------##- ## ------#----------##---##",
"@##  @@+ @##+@###@@@-- @##-#-##--#@@;+;; --@--@##-----###@##--@@##-#----  - --#-------#-------##-###",
"##@@    @@@@@#####@+@-#---#@ @  -##++@@@@  ##@@@-#-@#-@####@  ---##-- #@  -  --------#----@---------",
"##@@@   @@++@## @#--@##----@@@  ###@+@@@@@ ###-#-@#@-#@@@##@@# ##------@-   --------#--#--#- @------",
"# @@  @@@+  @#--@-@--##--@@@@-@-   #@@@@@# @@ @-----######@@###@@##--@@--- @--------#--------##-##@@",
"@@@    @#@@-@-----------#---@-@-   #@@@@@#  #  @-@####  @#@@#@#####@##@---@@-#----#---#---#-------#@",
"@@ @#@@##@---@---@#@---@@----#@-@#  @#@##@@##@  @-  ##@@#@@@@##@#@@-#---##--#------##@#--- -------#@",
"@@@@## ##@@------------#@@--@@#@@#- ##@##@@# @@ @-  --@@##@@###@#@@-@---##--#--##--------- @@--@#-#@",
"@@@#@-@#---#@------@-@@@----@--@@---@@@ #@ @### -##---###@#@@ @@##@---#--#@@####----@@ ---@-@@@@# @@",
"@###@----------@----@#@@#-@-----#-#--#@#@@ #####-  -#-##@ @ @@@##@@###-#@@--@##--#--@- ---@-@@@@@-@@",
"#@###----------   #--#--@-@@@- @#----#@###@@@@#--###-- --#-@@@@@@##@@@@----##--#-#--@----@@-@@@ @--@",
"#@--##---##----   ---#--#--  ------#-#-#@ @ @# ## #---#--@-#@-@#@ #   @#----#--#----@---@@  @@@ @--@",
"##----#--------@  --#---##-@##--##-##--## @@ # @-@----#-#--#--@#@@#@ --#----#-####  @@@@@@#@@----@##",
"--#----------# @@@@ #-##---#----##--#-----@ @-- ----###---@#-#@##@@#@#--#-#-@#--#@ @@@@# -#@--@--- #",
"--#####------@ @--- #--#-----#---##-#----@##@@------------@@@@#@@@##@##@##-@@--- @@@@@ #@-----##--- ",
"#--#----@ -##@@  @@----###-#-###----#--@@---###@#-@-##----#@---##@@--##--#--# ##@@@####@ #---@---@-#",
"#@##-----#@--@@# @----##---###@@# @--#-#@#@---##@-##@@----#--#@@#@@@##---#--####@@@@##---@@-#--- --#",
"#@##-----##@@@@ @@@@----###@#---###@@@-@--##@@--@--#---###-@@###@@@@###-#-@@-- ###@@ ##---###------#",
"#@##---@-####@@ @@@#######@##-#--##@@ ##@--  @-----@----##-####@ @@ ####-###- ####+### ####----@--@ ",
"@@#---#--#-@@@  @@@@#@@@##@@@##@##@#@@@-@@ @#@###---#@---#@@   @   ##@@--#-- ##-  ### --##- @@@#-#  ",
"#@@@@@ --#-@@@@@@ @@@@@@@@@@@####@##@@@  @@ ## ----@#-#--#--  @  # ### --#--@#--# #  --#@---@@##- ##",
"#@#@@@@-###@@@ @@@##@@@@@@@@#@## ##    @   @###-###-------## @@##@#  #@@#-##-#-#@- @ ###------@--@ @",
"#@#@@@@###@@@@@##@##@@@@@@@@ # ###### @@   @@##### #@@#--##  @@##  #@#@###-#-##@- @@####--@#-- --  -",
"@@#@#@@###### @@##@#@#@@@@#@@@##@## @@@@ @@######---@@ @@ ### @ #  #####@@@----- #@###@@-@## -#- #--",
"##@###@##@@@@@@@@@@@ @##@@#@ #@## @@@ @ #@@@####-#--@@@@@########@@##@ @@@@@-  @##--##@##@---###----",
"######@-@@#@@## @@# #@ ###@@## @@@@@ @#@ # @@####@@@@ @  @  @@######@@@###@@@  @@@###@@  @#---##---#",
"#####@@-##@@@@  ### ## ###@@#@@@@@@  @ #@##@@@##@@@ @@  @   @@ ### ##@##@@ @# @@-##@@###  @@#@#---##",
"#@##--@-#--@@@@   ## @@###@@@#@@@@ @@@@@@@##@@@@@ @@@#@@  ###  ####   @@@ @@#---#---### ---#--#-@###",
"#@@@---##--#@@@ @@##@##@#@@@##@@@@@@ ##@@ @@##@@@   @#     @  #####@   @-@#-#------##@@@###---#-####",
"####---#-####@@@    ##@# ##@ @@@@@@    #### @#@#@##  @  #   @  @@#@   @@--##-#--@##--- @@##---#-####",
"##--#----###-@-@@      #@ @  @@@  @@@@@#####@#  # ###@ ## @@  @@# @@ @@@--## #@-########-##-######@#",
"#-@-----#-#-#--#@@    @@  @@@ @@ @@@@ @###@@@@#  @@###@##   @@      @@@-#---#-#-##--#-#--#@#########",
"#-@--@----@#---#@@    @@@ @@@  @@@    @##@@##@##@ #@## ### @@@@@@  @@@@-##------------@-############",
"@#---@@----####---@@ - @          @ @@ #####@# @## ###### @  @#  @@ @-#--@##@---#-#---@#--#@#@##@@##",
"--##-------#---#-#@@ - @ @        @  #### #  #@ # ####@@    @@@@@@@##@####------@@---#@----@@@@#@@##",
"#@----##-#@-#--@#--@--  -@ @  @    @  # # #  @   ###@@##@#o   @@@@@@## #--##------@@---@-##@#@@@@@#@",
"#----##--#-#-#--#--#-# --           @   @@#      #@@@### #@@@-@@@@o@@@##@@###@--@@@@##--#####@@#@@@@",
" ##-@@@-@-@-###--#---#@-#          ## @#@# @###       @ #  @@+#@o##@@####---@-#-#--#@------#######++",
" ###-@@@@-#####------#----   -@       ## ######        #    ##@oo @@######@ --#-@###------@#---#####",
" #-- @@--@#@@--##@ @- -- -   - -       #########          -@+++o@@@ @@ #@@##@@##@#####--##@#-######+",
"@ --- -- @@@---@@------#-# - ---       ##@@@#### @@     o @ +++@@@@  @# @@#@@-@##@#@@##-@---######@+",
"       @ @@@@##----------- --#-  @     @###@@# #    o ooo  -ooo@o@@@@@ @@@#@###@@ @##@@ ##-----@#--+",
"@      @@ @#@##@@@--#-#-  ---#  -@     @@@@### #    o   # @o*&o@@  @   @# #@##@@####@####@-#-##---- ",
"+@ @   @@  @#@@@@#@#@###@#-- #--@ @ #@   o@  @## ++#oo*o@+&*ooo@@  @ @@@##@@ @###@#@@@#####@#--#---+",
"+@    @ @ @@@@@@@#@@@###-#-###-#       o -@  -+-@--@o&*o+o&*oo@@@@ @@  @##@@ #@@  #@@@ @@##-#--#-#@-",
"       @@#@  #@@@@#@# --#####@###@   @    oo#--@@-@+#o*oo&&o@#+@@ @  @@##@@ #@@ @@ ###@####--#-#----",
"@@@@    @##@## @@@#@# --#@ @####@@     +   o#-- @ @-#o*&o&o#@- @@@  @@@###@#@@  @@  @ #####---##---#",
"+@@@@@ #### #@@ @@##    @####@# @@@@@oo *@oo+--@-- -@-&&*o###- @@@@ @ @   @@@@@@  @  @@@##@@##----+-",
"+@@@@@ ## # @##   @@# @@@#  ##  @  @@+oo #oo ####--##o*&&o#@@@ @@   @@   @@@@   @@@   @# #@######--@",
"+ +@  @  ####     ###  @@@#@@  @@@  @@+o&&oo@####-- ***o#@@#  -@      @@     @@@    @ @#@@@#@@@#@  #",
" @@@+### @##@    @### # @@@#  @@   +++ oo*oo@@# ---#*&&o###   @@ @              @  @@ @##@@  #@## ##",
"@@@@@@@ ####   ###  @###@ @@@    +@@+++@o&*&oo#@@-o&&&@++@  -  -@                    @##  @##       ",
" ++@@@@###@  @@###@  ### @@@   @@++@@+++ &*&&o@#@@o&&o@ @@@- @@@            @   @     ###@##@ +     ",
" ++@@++ @@#@@ @ @@#### @##  @@  +@++++++ @o&&o#@@**&o  @@@@--  @    @           ++@++@+@ @@ @@  ++ +",
" ++@++++++ @@@@ @@@ ##  ##  @ ++ ++++++=@@@&&&@#o*&&*****@@++@@&&  @         ++  +@+++++ @@     ++ +",
" +++++++ +++ @@  @@  ##@@ #@@&++++=+=====@@oo&oo*&&&&&*&&&**+ o&&o @@   +   +@@   +  ++ ++   +++  ++",
"+++++++++++ ++      #   ###@@o++++=++=====@o*&o***o&&&oo&o****&oo++++       ++ ++ ++  + ++    ++++++",
"+++++++++++++++++    ###    ooo+++=++======o&**&&ooo .+  o&&ooo==+=+     ++++++  +   +++++     +++++",
"+++ +++++ ++++  ++        ooooo=++=========o&*&&&o+O.O.+==ooooo======++++++   ++     ++++  ++++++++@",
"+++ ++ ++++++  ++++  +  oo&&&&&&===========&*&&oo==O$O.==============++ +++  ++++++++++++ ++++++++ +",
" ++++++++++  +    ++ ++++ooooo&&==========o&&&oo===O$O.==============+++++     ++ ++++++++++ +++++++",
"++O++.++$+++++@=+++ ++++++++==oo&&&oo====o*&&oo====.OO.================+=++++ ++++ @++++++++++  +.  ",
"+%++O+++$+++++==++++=++++++===oo&**&&====**&oo=====O$$O===============++++++++ +++++ ++++  +++++O+O ",
"$%++.++$$$+++=====++++++=========oo*&o=o**&&o======.O%O==================+++=+  +++  ++++  +++++O++O",
"$%++.++$$O$+.========+=============&*&o&*&&oo======O$$O==================+++=+      +++++ +++O++O++O",
"$%O%O..O$$O$$%.====================o&**&**&o=======O$OO========================+= ++++ ++$+O$$+$O.OO",
"$$O$O..OO$$O$$%.===================o*&&&*&&o=======O$O.==========================++ ++ ++$+$..%$O.OO",
"O$OO%O..OO$OO$$%.===================o&o**&*========O$$O==========================++=++%++$+$..%$O.OO",
"OO%O$O.....$OOOO$$%..==============oo&**&*o========O$$O==========================+===O%%%$O...%$OOOO",
"OO%OO%O....OOOOOO$$$%....==========o&***&oo========.O%.=============================O%$$%$$..%$$O.OO",
"%O%OOO%.##.##OOOOOO$$$$$%.========o&***&&o=========..O=====================#===#==-O%$OO$O$..%$OO.OO",
"%.##$OO#--@###.......OOOOO$$%..===o&*&&&o==============================-=--@-#@--#$-OOO$$O%%$$O$...O",
"%#@@@##----###=##===.....OOOOOO.==o*&&*&o=============================##=---@@----#-OOOOO$%$$$OO.O.O",
"##@--@-----@--###--==============o&&&**oo===========================#=---+##-#--@#-#-OOO$%$$$OOO...-",
"###-----##+----#----============&**&***o===========================--@+##--#@#-@###--##$%$$OO$O...--",
"###-##---@#------####--========o**&&&*&o==========================#-#+#+#+##--@-##-#-.#%%$$O$OO..---",
"---####---@##+--#####---======o&&*&oo**o========================#@=@##@#---@#---#---@#--%$$O$O.++--+",
"---##-------@---######---=====o&**&oo**o=========================+#@@##@++@##+------#@###-$OOO+++-++",
"###------#----------@#----#===**&&oXo&*o========================#@##+@#+@+@#@+--@--###---#@OO++++++-",
"##-#------#---##-##-------@--=**&*oXo&*o=======================##@@+@@+@#@@##+@#@-##-##-@--@+++#@@##",
"---##---@----#######---###----&&*oXXX&*&o=====================##@@+@###@#@@##+#-+-##---##-@@+@@@-###",
"#---#---@----#-#####-#---#----o**oXXXo&&*o====================-++#@@@#@+#@--@@---+--++#---#-@@@-####",
"-----------##--##--##-----####o*&&*XXX&oo&*===================-+#+@#@@##@#+@@+##-@#----@-@--@@--##-#",
"------@---####-#----#------##*oo&*ooXoXooo&====================-##-@+++@-#@-+@#@##+-@--+@#--#+--###-"
};
