/* XPM */
static char *_8a68acfcf2f47bea41d163429550decbDUBp1C5SlN1wgmT[] = {
/* columns rows colors chars-per-pixel */
"100 100 13 1 ",
"  c #21181B",
". c #1B1F21",
"X c #3B2027",
"o c #7D3833",
"O c #283540",
"+ c #2F5753",
"@ c #3B7D4F",
"# c #AB5130",
"$ c #CF752B",
"% c #35960B",
"& c #63AB3F",
"* c #A2D341",
"= c #6FA8DC",
/* pixels */
"++==================================================================================================",
"++==+++=============================================================================================",
"++.+++=======================================================================================+======",
"O.+++..==================================================================================+++++===+++",
"O+++O.+==================================================================================+++++==++++",
"+++O.++.=O=============================================================================...+++.+++..O",
"+O+.+++++++=O==================================================================+=====O@+++++++@@++O.",
"++@.++O++++OO+++===========================================================+==++=O==O@@++++@+@@@++++",
"++@O+OO+O++O+++=...O=======================================================++=++=O@O@@@++.+@+@@@+@@@",
"+@@O+@@+OOO+++OOO+@O.+OO=================================================O..+.+.+@@+&@+&&@@&+@+++.O+",
"O@.O@@@+O+++++@O+@@O+.O..===============================================+++...@@@@+@&&+&&@&&+++@@@OO",
"+@+OOOOOO+++++@@@@@O++...=================================*&=&=======O=OO+++.&+@@@+@&&@&&@&&&+&&@@@@",
"++@@@+O+.++++O+@@@++@@.++.========================&==&&@=&@*&@&&=&===O.++O&&&&@@&&&&&&&@@@&@+.@..@@@",
"+@@@+++++++@@@++@OO+OO++O..+=======================&**&&+&*&&*&@+&O&OO.+++&@&&@&&&&&&&&&&&&&&&&@@@&.",
"@+.OO++++++@@@@+++@@@++++..O+&==+================&*&&&@*&+&@+&=+&@&OO.&&&&@+@@@@@&&&&&&&&&&&&&@@@@@@",
"&@++O.+OOOO++++O@@@@+++O@&&@&&+++============&&===&++++@&&@&&&+**O&O++@@&&&@&&&&&&&&&&&.&@@&&@@&&&&+",
"O@@@O.++OO+@@O+@+++O+&..@&&@&&++&&++=======&=&&*+@@&O++O++&@++*&&*&+.&@@@@&@&&&&&&@&&&&&&&&&&@@&&&@@",
"+@@..++O.+@@O+@@@+++&&.+@@&@&@@&&+++=O===&&=*&+&@&O++OO+O+++O&&++O&@@O&&&@&&&&@&&&&&&&@&&&&&&&@@&@@@",
"@@++....+++++@@@@@+O+&@&&&@+@&&&&@+OOO==O=**&&&**&&OO*+++O&+&++&+&@&+&@@&&&@&&&&&&&&&@&&&&+&&&&&&&&&",
"@@+++...++OO+@@.+@&&+@@&&&&+@&&&@+++OO.OO+*&&&*&*@&&**&+O+@*&&&**&&&*O&@@&&@&&&&&&&&@&&@&&@&.+&&&&&&",
"@.++..+++O..+@&&+&+&&@@&&++@&&&++++++@&+OO&@&&@*@&*&***&OOO&@*&*&&&*&&O@+&+&&&&&&&&&@&&&&&&&&@@&@@++",
"+++....+@++&+&&&&&&&&&&&@&&+&@@@++..&+O@&*O&O@&***@OO**&+@*&&****&*@@*+&@@&@&@&&&&@&&&@&&&@&&&&&&&@+",
"++.+@++@@+&&&+&&&+@+&&&&@&&+&@@++++++&@&O&+&&&&+&*&&&&&*&@+&*+&*&@*@&++++&@&&&&&&&&@@+@&&&.&&&&&&&@+",
"++++@@.@@++&&&&&&&&&&&&@@&&@&++++++O&+.&&O&@+@+OO@&&&++&&&+@@&*&&&&**+&@&@@&&&&&@&&&&&&&&&.++&&+@&@+",
"+++@+&+@&&&@+&&&&&&+&@@@@@@@@+O..+O+@+++&O+@O&&@&&O&&@O&O+@@@@&*&O*&&&@@+&@&@&.&&&&&++.&&&+&++++@.++",
"+@@@+&&&&&&&&&&+&&&&@@@@@@@+@+++O@.&O@++@&@@+@@@@+++O@++@O@O@OO@@&&@@@+@++@&&&&&&@&&+&.&&&+&+++++&++",
"@+@@@&&&&&&&&&&&&&@&@@.@@@@++++++@.O@@@&&@@@+&&O@&O+@+@@+@+O@+@&+OO&+&@O@@+@@@&@&@&&+&&&&++&+++.+&&+",
"@+&&@@&&&@@&&&&&&&@&@@@@@@@@@++++@@@&@@+&@&++@@@@@OO+@@OO++++OO@O+O+@O@@O@@@@+&+&&&&+&&&++..+++.+&&+",
"@@&&&&@&&&&&&&&+&@@@@O@@O@@O+@@@@O@@@OO+@O@@@OO@+O@+OO+O+OOOO++OOOO++O+++@O*@@@*@@..++++++@++&&&&+@@",
"&&@&&&&&&&&&&@&&@@@@@OO@O@@@@@O&*@*&*+@@OOOOOO@OO++OOO@+OO+OOOOOOO+OOOO++@@@O@@O@+.++++@.&@+&&+&&&.@",
"&&@@@@@&&&&&&+&&@+.@@@OO@@&*O+*&*@&&*O*@+OO+OO+OOO@++OOOO+OOOOOOOOOOO+&*&*+**@**O+O+++.@+&&&&&@@&&&.",
"@&&@&&&&+.&@@@+@@@@@@@@@O@@O&@********OOO*OOOO@O+OOOO@O+OOOOO&OO@O+@+++&@&&+O&@+*O+@@@@+.@&&&+&&&+&@",
"@+@@&&&&&@+&&&&@@@@@@@O@OO*@&+&*****&&*+*&&+OO++OOOO+OOOOOOOOO&@OOO+&+**&**++*O*++&&@@&&&++&@&&&.&&@",
"@+@@&&&&&@@&&&@@..@@@@+@@+OO@&&O*&&*****&OO&OOOO+@OOOOOO@@&@O&+O*&O+@*&&&&*@**++*@+@&O@&&&@@@&&&&&&@",
"@+@@&&&+&@@@@@@+@@@O@&@@@++O&@+&&+*&@*+**@*OOOOOOOOOO@OOO@@O&&*O@+@&+**@**&&&@*O@OO@@@.@@@@&&&&+&&+.",
"++@&&&@&&@&@+++@@@&.*+&&+O+@O++@@@@&+&@&*&OO&@OOOOOOO@@@+&&@&*&&**&+@@*+++&&&+@&&@@O@&&&@@&.+++@&@..",
"@+++++.&&@&@@&@&@@&*&&*O*++++O+&@&@&++*&&*&&*&&OO&OO@@@@@@&&@@**&&&&**&@*+@&&@&&&&O@&&&@&&&&++@@&.@@",
"@+@++++&@@@@@@&@+&&**&&*&+OO@@O@@+&&&&&******&O*OO@OOO+&@&@+&&&&*&&*&@@&&&&@@&@@&&*@&&@&&&&&&&+&&+.+",
"@+@++++@@@+@@+&@@**&&+&*O&+*@O@+@++@@@@&*&&&&**&&*OO@+O+&@&@+&O@&&&&&&@&&&@&+@O@&@&**&&@&&+@&&.&&..&",
"++@+@++@@@@@@@@O+&&&@@&*&*OO**OO@O@@+@+@@+@&&*&&&O*OOO@&@+&@+@++@+O+@&@&&@&++&+**&*&**O**&*@.&@&.@&&",
"@@+@@@+@@@@O@++++@@&+@&O**@+@OOO@++O+@@++@@&&@@@&&O@O++O+O@O@+OO++O&@@&&&&&@&&&*@&+@&&*&&&&*&@@@&&&&",
"@@@@@@+@++@@+@O@++@@**&&&O*@O@O+OO@+O+O@@+++@&&@@@O&OOOOO@&++OO+O@+O&&&@&&&**@&@&*+*+&&*&**&&&@@&&&@",
"@@@@@++@@@O@+O+@@@@&++&+*&+@@+*+OOOOO@@O@@++&@@@@&O&@OOOOO+OO+O++@@@&&@@&@&&O&@@@@+O&&&&&&++&&@&&&@@",
"@+@@@@+@@@@&@@O@@OO+OO+OO+*@@&@**O&OOOO@@O@+@@&&@+OOO&+O+OOOOO+OO@+@O@&@+OO++OO@@@+O+@+&&@+&&&@&+@@@",
"@+++@@@@@@@O@@OO@O+&OOO++O&*@&*&&@OO*OO+*@OO&+@+&&+&&OOOO+OOOOOO@@@@@@@@&&+OOO+OO@@O@++@@&@@&&&&@@@@",
"@@@@@@@@@O*@@OOOOOOOOO+++&@@&@&O&&&&+*&+&OO@@&&*&&@@&+&&OOOOOOO+@O+@@+O++O@++O@O@++@++@+&@+&&+&&@@@@",
"@@@@@@+&+&+**@OO&OOOOO++O&OO&&O&O+&&*&@**&&@@&*&@@@&&*&O++&OO+OOOOO+OOOO++OOO+OO+OO+@@&@@&+O&&++&@+@",
"@@@@@@@&+@*&&**&&OOOO+OO+*&*O*&O+&+&@+&&&&+@*&&*&@&@*O+&&@O+OOOOOO+OO+OOO+X++O+OO++O+OO++O++@+@@@@@@",
"@@@@@+@*O@@**&*&*O*OOOOO&+O&***@&&&&&&&&&@&++@&@**&&@&*&&&&OOOOO++OOOO+OO+O+XO&O++&O+++++++@+O@@@@@@",
"@+@@&&&&****&@&@&&&**OOO*O**O+**O+OOOO++O&O@@O@&@@@&&@+@@&+++@O+ O+O +X+ +@+@@@@@+&+@++@+@@+@+@@++@@",
"@@@@@+&*+**&*@**@**&**O&&O&@@@****&+OOOOOOO@@O&@O@@@O&@@@&&@OO++O O  X  ++@&&&@&@@++O@@@@@&@+++@++@@",
"+O@&&**&&&O&&@&@@&*@O&&**@@O&@****@@+++@O++@@@+O@O@@@@@@+@@+@@+ OO XX+ @+@&&&+&&+&++OO@&@&&@@@++++@+",
"++&@*&&*+&&&&&O@@@@&&&O@@&O@&*@**O*&OOOO+OO@OOOO@@O@@++@+@@@O+@@ X+ @++O@@@@&&*@O&@.@@@&@&&@&&&@++++",
"+@@&@@&@&&@&&@&@@&@&OO&&@&@&&&*@&O+O*OOOO+OOOOOO@@O@@@+@O@@+  X OXO@+O+@@+@&**&@O*OO&&@O@&@@@@@@@@OO",
"++@+&&&&@&&@&&&@&@O@&&&+&&&&&@O**O**OOOOOOO++ O@OO@OO@@@XO@@ X X O+@@@OO+**OO+**@OO&@@@@@@@&&&@@@@@@",
"@@O@O&&@&O&&&&&&&@@@O+&+&&&@&&&&&@&O*OO OO+++   O@+@O+ @X  XX @O+OO@OO@O@&&O@*@&&O*@&@*O@&&@&@@+@@@O",
"&&&O+@&@O@O&&@@@&&&@@&&++@&&&@&O*@O+&**  +    X X+X.OO@    +&&&+OOOOO+OOO@+&&+O@&&&&&*@OOOO&@@@@@@+O",
"OO&++O@OO+&+&@++O@OO@@@@&@&OOO&O++@O+OX+  XX X XO.OO.OOOOO@@OOO+OOO+OOOO@OO@O&O+&****&*&*@@@@@@@@+OO",
"&O&&O&O+OO@&&&OO&OO@@@&&@&@&&&@O+OOOOXX   X X Xo.OOOOOOOOO+O+OOOOOOO&+OO&@@O&&&&*@**&*@&O&*&O@@@++..",
"O&&O&&O&&+OO+++&+@@OO++O+@OO@@&O+O++X +X X      XXXooOOOOO+@OO+@++@O@O&@@&+*&&&*&**&*****@+*&&@O.@OO",
"O&&&&&&+@+++OO++++OO+@++++OO&&OO&+&XOXX X X O.OOO  X oo+O@OO+O@@&@*&&@&&***O&*+**@@@@*&&**&@+@*O&+++",
".&&O+&&&@@+@++++OO+++O@O+OOO++&&O&oX XX  X OOOOOOOO +XO@OO+@@@+&+@&+**&@@&&*&O*@@&&&&@*@&&O**&&&O+@+",
"OOO.&&&&&++@O+++++O++@+OO+OO+&OO&o X X X OO..OOOOO%OOO+@O+O+@&+&++****&@@*&@&O@@&&&&O@&&&+&**&*+*OOO",
"O+++&&O@&++O+++O+O.O+++++O+OOOooXo X XXOOOOOOOOOOOOO+@@OO@@@O@*+&&+**O@@@@&&O@&@+@O&&@&&@&**&&&+@OO.",
"OO++&OO++++++++O+OOO+O+OOOOO.OXo#X X  OOOOOOO.OOOO%+OO++O@+O&+&*&O*@&&&+@&@@&@+&@@&@O&+**&O*&*+*+*OO",
"O.OOOOO+++O++O++OOOOOOOOOOOOOo##oXX  OOOOOOOO.O%%%OO+++O@+@@@+@&OO+++@O&&O@@++@&@O+O++O&&&&&+**OOO&&",
".++OO+OOOOO+OOO+OOOOOOOOO#O.XoooooX OO.OOOOOO.O%%OOOOOO++O@OO&&@OOO+@+@@@&@@O+OO&&O++@++&&O+*+@*+OO.",
"++O.++OOOOOOOOO.OOO.OOOOOO##Xo##oXOOOOOOO.OOO%OO%%O%O++++++O&OOOO@+OOO@@+@+OO@@&O@+OO+&O**&O&&++OO.O",
".OO+++.+OOOOOOOOOOOOOOOOO.o#X#o#oXO..OOO.OOO%%%%OO%OO++OO+O+O@++OOOO+OOO+@+@@O@@@O@OO@*&&OO*OO+OO++.",
".OO++OO+OOOOOOOOOOOOOOOO.OXo#o#ooOOOOOOO.OO%%%%%OOO%OOO+OO+O+OO+O@@+OOO@OOOO@O++@@O@OOOOOO+OO+O@+O.O",
".OO+OOOOOOOOOOO.OOOOOOOOOoXo###o#OOOOOO%%%%%%%%%%%%O%O%OOOO+++++O@OOOOOOOOO@OO@@+O+O++OOOO@+@@+.@O.O",
".OOOOOOO.OOOOOOOOOOOO.OOXoXo####$O#o%%%%%%%%%%%%%%O%%OO%OOOOO+O+OOOOOOOOOOOOOO@@OOOOOOOOOOO+++O+..OO",
"OOOOOOOOOOOOOOOOOOOOOOOoooooo#oooX%OO%%%%%%%%%%%%%%%O%%%OO%OOOOOOOOOOOOOOO@OOOOO@++@++O.@+....OOOOOO",
"OOOOOOOOOOOOOOOOOOO.OOoXooo#o##$OO%OO%%%%%%%%%%%%%%%%%%%%%%%OOOOOO+++OOOOOO@O@OOOOO++OOOOO.....OOOOO",
"OOO.OOOOO.OOOO..OOOOOOO XXo#o###OO%%%%%%%%%%%%%%%%%%%%%%%%%%%%%%%O%+O+OOO++..+@O+.+..OOOO..OOOOOOOO+",
"OOO.OO.OOOOOO..OOOOOOOO Xoo###o#$%%%%%%%%%%%%%%%%%%%%%%%%%%%%%%%%%O%%OOOO+@..@+OOOOOOOOOO.OOOOOOOO.O",
".OOOOOOOOOO..O....OOOOOXXo#o#####%%%%%%%%%%%$$$%%%%%%%%%%%%%%%%%%%%%%OOOOO.+...+O.OOOOOOOOOO.OOOOOOO",
"OOoOOXOO#OOOOO+%OOO.OOOOXX##o##ooo#$%%%$#####o#o$$%%%%%%%%%%%%%%%%%%%%%O%OOOO.OOOO.+OOOOOOOOOO..OX..",
"O$OOoOOO#OOOOO%%OOOO%OOOXoo##oo#o#o##o####ooo#####%%%%%%%%%%%%%%%%%%%%OOOOOOOO.OOOOO.OOOO..OOOOOoOo.",
"#$OOXOO###OOO%%%%%OOOOOO%XoXo##oo####ooooo#######o#%%%%%%%%%%%%%%%%%%%%%%OOO%O..OOO..OOOO..OOOOOoOOo",
"#$OOXOO##o#OX%%%%%%%%O%%%XXoX########oo#o#####o#o##o$%%%%%%%%%%%%%%%%%%%%OOO%O......OOOOO.OOOoOOoOOo",
"#$o$oXXo##o##$X%%%%%%%%%%%XXoo######o##ooooooo#######%%%%%%%%%%%%%%%%%%%%%%%%%%O%.OOOO.OO#Oo##O#oXoo",
"##o#oXXoo##o##$X%%%%%%%%%%X oXoooo###oooooo######o####$%%%%%%%%%%%%%%%%%%%%%%%%%%OO.OO.OO#O#XX$#oXoo",
"o#oo$oXXoo#oo##$X%%%%%%%%%%%X o##oooXooooooXXo#####oo#o$%%%%%%%%%%%%%%%%%%%%%%%%%OO%OO$OO#O#XX$#oXoo",
"oo$o#oXXXXX#oooo##$XX%%%%%%%%XXXXXXXXXXXXXoooXooo##XXX#o%%%%%%%%%%%%%%%%%%%%%%%%%O%%%o$$$#oXXX$#oooo",
"oo$oo$oXXXXoooooo###$XXXX%%%%% XX%%%%%%XXXXXooXo###XXooo$%%%%%%%%%%%%%%%%%%%%%%%%%%%o$##$##XX$##oXoo",
"$o$ooo$X@@X@@oooooo#####$X%%%%%%%%%%%%%%%XXXXooo#o#XXoXo#%%%%%%%%%%%%%%%%%%@%%%@%%&o$#oo#o#XX$#ooXoo",
"$X@@#oo@&&+@@@XXXXXXXooooo##$XX%%%%%%%%%%%X Xooo##o#ooXo#%%%%%%%%%%%%%%&%&&+&@+&&@#&ooo##o$$##o#XXXo",
"$@+++@@&&&&@@@%@@%%%XXXXXooooooX%%%%%%%%%%X XXoo#####ooo#%%%%%%%%%%%%%@@%&&&++&&&&@&ooooo#$###ooXoXo",
"@@+&&+&&&&&+&&@@@&&%%%%%%%%%%%%%%%%%%%%%%%%XXXoX###o#o##o%%%%%%%%%%%@%&&&O@@&@&&+@&@&ooo#$###oooXXX&",
"@@@&&&&&@@O&&&&@&&&&%%%%%%%%%%%%%%%%%%%%%%%% XXooo#o##oo%%%%%%%%%%%&&+O@@&&@+@&+@@@&&@@#$##oo#oXXX&&",
"@@@&@@&&&+@&&&&&&@@@@&&%%%%%%%%%%%%%%%%%%%%%XXXoXo###o#X%%%%%%%%%%@&@O@O@O@@&&+&@@&@&X@$$##o#ooXX&&&",
"&&&@@@@&&&+@@O&&@@@@@&&&%%%%%%%%%%%%%%%%%%%% XXoXoo#ooo%%%%%%%%%@+%+@@+@&&&+@&&&@&&&+@&&$##o#oXOO&&O",
"&&&@@&&&&&&&+&&&@@@@@@&&&%%%%%%##$%%%%%%%%XXX XoooXoo##%%%%%%%%%%O@++@@+OO+@@O&&&&&&@+@@@&#oooOOO&OO",
"@@@&&&&&&@&&&&&&&&&&+@&&&&@%%%#o#o#$%%%%%X#$XXooXXooo#o%%%%%%%%%@+@@O+@O+O+@+O&&+&&@@@&&&@+ooOOOOOO&",
"@@&@&&&&&&@&&&@@&@@&&&&&&&+&&####o##%%%$%Xo#XoooXoooo#o%%%%%%%%@@++O++O+@++@@O+@+&@@&@@&+&&+OOO@++@@",
"&&&@@&&&+&&&&@@@@@@@&&&@@@&&oo#oo###%####Xooo#$o$$XXo#o%%%%%%%@@++O+@@@+@++@@O@&O&@@&&&@@&++O+++&@@@",
"@&&&@&&&+&&&&@&@@@@@&@&&&@&oo#oXXo#o#XXo#$XXooo#oo#o#o#%o#%%%%&OO@+++@+O@+&&++&&&O&&OO@&&&@&+++&@@@@",
"&&&&&&&&&&&@@&&@@&&@@&&&&&@o##X%%X#o#$Xoo#XXX##o##o$ooo####%%%&O@O+@++@@+@O++O@@&+@&&&&+&+&&++&&@@&@",
"&&&&&&+&&&@@@@&@&&&&@&&&&&ooXX@%%%Xoo####$$ oooooooo#$#o%%X#$%%&@@&+OOO+&@+&O+@+@@O&+&&O+@&&@O&&@@@&"
};
