/* XPM */
static char *_8f9eae4829a4c2bd777ee1d884467bfQ3lovAG2VU7hQg0D[] = {
/* columns rows colors chars-per-pixel */
"100 100 20 1 ",
"  c #21181B",
". c #1B1F21",
"X c #3B2027",
"o c #3D2936",
"O c #27343F",
"+ c #29343F",
"@ c #52333F",
"# c #7D3833",
"$ c #283540",
"% c #2F5753",
"& c #305652",
"* c #315654",
"= c #315955",
"- c #3B7D4F",
"; c #AB5130",
": c #CF752B",
"> c #8F4D57",
", c #35960B",
"< c #63AB3F",
"1 c #6FA8DC",
/* pixels */
"%%11111111111111111111111111111111111111111111111111111111111111111111111111111111111111111111111111",
"%%11%%%111111111111111111111111111111111111111111111111111111111111111111111111111111111111111111111",
"%%.%%%111111111111111111111111111111111111111111111111111111111111111111111111111111111111111%111111",
"$.%%%..1111111111111111111111111111111111111111111111111111111111111111111111111111111111%%%%%111%%%",
"$%%%$.%1111111111111111111111111111111111111111111111111111111111111111111111111111111111%%%%%11%%%%",
"%%%$.%%.1$11111111111111111111111111111111111111111111111111111111111111111111111111111...%%%.%%%..$",
"%$%.%%%%%%%1$111111111111111111111111111111111111111111111111111111111111111111%11111$-%%%%%%%--%%$.",
"%%-.%%$%%%%$$%%%11111111111111111111111111111111111111111111111111111111111%11%%1$11$--%%%%-%---%%%%",
"%%-$%$$%$%%$%%%1...$11111111111111111111111111<11-<111111111111111111111111%%1%%1$-$---%%.%-%---%---",
"%--$%--%$$$%%%$$$%-$.%$$1111111111111111111111<<1-<1-11<11111111111111111$..%.%.%--%<-%<<--<%-%%%.$%",
"$-.$---%$%%%%%-$%--$%.$..111<1111111-111111111-<<<-%<-<-1111111111111111%%%...----%-<<%<<-<<%%%---$$",
"%-%$$$$$$%%%%%-----$%%...11-<<<1111-<111111111<%--<<-<<<11-1<11111111$1$$%%%.<%---%-<<-<<-<<<%<<----",
"%%---%$%.%%%%$%---%%--.%%.<<%%<1-1<<<<-<11<1-$-<-%<--%<%<-%<--<111111$.%%$<<<<--<<<<<<<---<-%.-..---",
"%---%%%%%%%---%%-$$%$$%%$.<-%-<1-1<<<<-<-1<1-$-%-<<<%<<--%-<<<-11$$$$$.%%%<-<<-<<<<<<<<<<<<<<<<---<.",
"-%.$$%%%%%%----%%%---%%%<<-<-<%%%%-<<-<%<%-<%-%$%-%<<<<<<<<<<<--1$$$$.<<<<-%-----<<<<<<<<<<<<<------",
"<-%%$.%$$$$%%%%$----%%%$%<----<-<-----<<<<%-$%%%---$<-<<%-<<--%-<11$$%--<<<-<<<<<<<<<<<.<--<<--<<<<%",
"$---$.%%$$%--$%-%%%$%<.-%-<--<-<-<<<<<<---<--<-%$$$%%--<--<-<-<<<$$$.%%---<-<<<<<<-<<<<<<<<<<--<<<--",
"%--..%%$.%--$%---%%%<<-%%--%%-<-<%-<<<-<-%<-$-<$$$%$%%<<<--<%-<-<$$---<<<-<<<<-<<<<<<<-<<<<<<<--<---",
"--%%....%%%%%-----%$%<---$$%$<----%<<<<<-<<-<<<-<$-<$-<<<<%%%-<-%%--%<-<<-<-<<<<<<<<<-<<<<%<<<<<<<<<",
"--%%%...%%$$%--.%-<<%----%%$%%<%-<<<--<-<--<----<-<<%-%%-<<<-<-<-<--%<-<-<-%-%<-<<<<-<<-<<-<.%<<<<<<",
"-.%%..%%%$..%-<<%<%<<--<$%-%%$<%-%<<<-----%<-<<<-<<-<<<%<-<--<<--<<-<<<-<<-<<<<<<<<<-<<<<<<<<--<--%%",
"%%%....%-%%<%<<<<<<<<<<%%%<-<-<<-<%-<<<$----<<<--<<<<-<<<---<<<----%<<<-<<-<-<%<<<-<<<-<<<-<<<<<<<-%",
"%%.%-%%--%<<<%<<<%-%<<<<%%<-<<%<$%$%<-<-%-%<--<-<%%<<--<-<%--<-<<-<----<%%<<--<--<--<<<<<<.<<<<<<<-%",
"%%%%--.--%%<<<<<<<<<-<<<-%<<-<<<<%-<<<<--<<-<%$%$-%-<%%-<%-<%<--%--<%$%$-%%<%%<<<-<%<<-%<<.%%<<%-<-%",
"%%%-%<%-<<<-%<<<<<%--<-<<%<<<---<<%<<-<<%<<<<$%$%%--$<%-<%%<%<<%%%<-$%$%%--$<%<<-%<%<-%%<<%<%%%%-.%%",
"%---%<<<<<<<<<<%<-%<<-<%-$--<-<<--<%<<--<-<<%-%$%$-$%%%%<<-<<<-<--<--%$%$-$%%%-<--<<<-<--<%<%%%%%<%%",
"-%---<<<<<<<<<<<<--<<<%<-%%<-$-%-<-----<<<<$%%%-%$-$$%%-<<-<<%-<-<$$%%-%$-$$%%%<<-<<%<<-<%%<%%%.%<<%",
"-%<<--<<<--<<<<<<%%%-<--$---$%--%<-<%<<<---%-$%<$$$$$$-<--<-<<<<<<%-$%<$$$%$$-<--<-<<-<<<%..%%%.%<<%",
"--<<<<-<<<<<<<<%<-<%<<-<<<%%$$%----<<-<$-<<%<-<-<<$$%$$%<<%-<%%-<-%<-<-<<$<%$$$<<%-<%<-<%%-%%<<<<%--",
"<<-<<<<<<<<<<-<<-<%-%-<<<-%$$%$<<---<<<$<-<<--<%<-$<%-$%$<%%<<-<-%%<-<%<-$<%-$$$%%%<<<<-.<-%<<%<<<.-",
"<<-----<<<<<<-<<<<-<<<<-%<%-%-%%<-<<-<<-$-<<-<-<-<-<-<<<$$--%<<<%-<-<-<-<-$-<$%$%-<%<-<%%<<<<<--<<<.",
"-<<-<<<<%.<<----<%<<<-<--<%<--<<<<-<----$<<---<<-<<-<<<<-%<-<<--%%<--<<-<<<<<-%%-%<<<<-%.-<<<%<<<%<-",
"-%--<<<<<<--<%--%<<%-<<%<-%---<-<--<<<<-<%<%<$<<<-<<-<%%<-<<<--<<<%<$<<<-<-<$<$%%<$<<-<<<%%<-<<<.<<-",
"-%--<<<<--<<<<%<<<-<<%%-$%$%<<-<%-<<<<-%%<%-<<<<<<-<<-<<<-<-<%$<-<-$<<-<<<-<<%<--$<<%<<<<----<<<<<<-",
"-%--<<<%-%-<<<<-<<--$---%%%$-<%<<<<--<-<--<--<<%---<<<<-<-<<<<-<-<<-<<-<<<<<<<-<<<-<<%<%<--<<-<%<<%.",
"%%-<<<-<<<-<-<--<-%-%$-$%-%--%<---<<<%<-<<-----%--%--<<<%<-<--%$%-<<<<-<--<<--<<-<<<--<<<%<.<-%-<-..",
"-%%%%%.<--<<<<-<-%%%%%%$%<$%<-$-<<<<--<<-%-%$%---%%-<%-%<%--%%%--<-%<---<<-%-<%<<---%<%<<-<<-<-%<.--",
"-%-%%%%<-<-<<----<<%$%$$$<%$--<-<<-<<<-<--<%%--%$%<%%%-%<<---%$%$<<<<%<-<<--%<<--<-<%<$<<%-<----<%.%",
"-%-%%%%-<<%-%%-<$$$-$%$$--<<-<-<<<<<%<%-<--%$$%-%----<%%%%$$$-$<$%<-<<-<-<<<<--<-<<<$-<<<<<<<-$-<..<",
"%%-%-%%=%<<<<<<%%$$$-<<<--<--<<<<%$%%$<$-<<<%-$%$%-<<-<-%$$$$<<-<-%%--<<<%-%-%<-%$-%-%--<-%<$%-$.-<<",
"--%---%--<-<<<<%$%$$-$<<----<<<-$%$<<$%--%%<--%%%%--<%$-$$$$$<<<--$<-<<<-<%--<--%%$%----<<$%%---<<<<",
"------%--<-<%$%<$<%-<<<<--<<<--<%$$%$ $<$---<<<<<<<<-<%<$$$--<<--<%-<-<$<<<<--<<$$%$%-%<-%<$-$$-<<<-",
"-----===.<-<<$<%<<$-<-<<<-<<--%-$$$%% $<<<-<<<<<<<<<-<%<%-<-<<<<<<%-<<<<<<<%-<<<%$-%--%$$<$%-%-<<<--",
"-%----%-<<<<<<<<<----<-<%<<%<<<-$-%---<-<-<<<-<-%--<--<<<<<<<%--<-<--<<<%%%<<<%<-%<--%$%<<<-<<-<%---",
"-%--<-%<-<<-<----<<-<-<-$%<<--%--%-<-<--<<<<%-<<<<%<<%<-<----<<<<<<<%<-<----<<%<<---<<<<<--<<<-<----",
"----<<%%-<--<---<<<<<<<<<<<%-%$$-%<-%<%<-<<-%%<%<-<-<<<%<-%<--<-%<--%<%<-%<--<<<-<-<-<<<---<<<-<----",
"--<<<<--<%<<$<<%<%---%<<%%$%-$%%$-%-<%--<-<-<<-<<%<%---<-<-<<<---%<%$-<-<-<<----<<-<<<-<<--<------%-",
"-$-<--%-<$<<<<<<<<-<--<--%%-$$%%<--<---<<<<<<-<-<--<-%-<<<<<<<---%<<<<<<<<<<<---<-<<<<<<<-%---------",
"---<<<<%-<%%<---<<<<<%-%%-%%$$%$<%<$%-<<%<-<%<%-<<%--<%<<---%-%<<$$%%<<%---%<%<<-----<%%-<%---------",
"-$%%<%--<-<-<<<<--%%<<$$-$$$$%-<-<--<<<<<<%%------<<<-<-%<<<<<---%%-%%-%<<<<<---<-%-<<%<<%-%-%--%%--",
"-$-$-<<$<--<<%-<<<<%%<$$$%%$-<-<<-<%-<--<%<<%-<<<<---<-<-<%%%-<-$$$$-<<<<%%%<<-%%%-$$<<%-%%-%%%-%%--",
"%$$-%<%<<%-<--%<<-<<%$%$$<--<<--<-<%-<-<-%%<<$-<%<<-<-<<<%<%-%<<<%$$-$$<<%%--<<<$%$%$<<%%<<---%%%%-%",
"%%<.==<<-$%<%%--<<<<-%%%-<<<<<<<<--%<<<<-<<$<--$---%<<-%<<<%-<-<-<%%$$$<%%<<<<-$%-$%%-<<-<<-<<<-%%%%",
"%%<<=<<%$$%-%%-<<<%$<%$$--<<<%-<<-<%<-<<-<<$<-%$%--<-<%<<<--%<<<<<-<$$%$%<<-<<%-%-%-O%%%-<--------$$",
"%%<%<<-%%<<---<<<<<<%$<-<<%<-<--<<---<--<%<<%<$%$%----<--<%%<<-<--<--$$%<$%<<<-<$<-%%<$$$--<<<------",
"<<$%<<<=--<-<%<<<%<-$-<<--$<<--<--<<<<<<<<--<%$<$-$$$$%-%-----<--<<<<-%%%$<<$%%%-%$<-<%%$$<<<--%---$",
"<<<$%<-=-<--<<-<-<<-$%-<<-%%<<$<--<<<-%<<<<<<%<<--$$$$---%%--%$-<<-<<-<$%<<<<<<-<%<%---%$--%------%$",
"$$<<<<%--<-<%<<$-<--%$<--%-%--%-<%-%-%<<--<%<-<-<<$$$%%%<<<<-<%<--<---<-$-<%<<<%---<-<<$.<-------%$$",
"<$<<<-%-<<<<--<%<-$<--<%---%$$%--<--%<<<<<<<<--<<<$$$$$-$<<--%%<----<---$-<<-<-<%--<---$%<<$$---%%..",
"$<<$<<-$<-<-<<-%<-%<<<-<--%$%%$<<-%<<<%$<----<<-----$<$%%$%%%<<%<<--<%%%%--<-$<<-<-<%-%---<---$$.$$$",
"$<<<<$<%%<%<<<<<-<<-<%<-$%--<--<%<-<%%<<$$$----<<<<<<$<$$%%-<<<<---<-<-$-<%-<%-<<-<-<$<%-------.$%%%",
".<<$%<<<%-%$-<-<<$-<<-<<$%<-<<<%<<$$$$$$$$%-%<<-<%-<<<--%$%<%%<----<<%-%%<<<<<<<<-<<%-%%-------.%%%%",
"$$$.<<<<$%%<$<<-<-<%<$<<%-<--<<<%-<$$-<%$%$<<$<%<<<<<-%<$$$<<<%<--<%<$%$$-<<-<<<-<%<$%$$%$-%$%%%$$$$",
"$%%%<<$-<%%$%<<%%<<-%<<-<<<<<-<<%-<$%%%$%%$%-%-<-<<-<<<<--$$<<<%<<-%$---<<-$<<-<<$%$-%%$$%%$$%%$.$$.",
"$$%%<$$%%%%%%$-$<<%%--<--<<<--<---<$%%O%%%--$<%<----%<<--<-$-%$$<<-%--$$<%<-<-<$%<$$-$%%$$$%%%%$%$$$",
"$.$$$$$%%%$%%$%$$--<%<-<%<---<--%<--<$<%-$<<%-$%-%%<<-%<<-<-$<<<--<%%%<---$%%$%$%%$$%$$$$$%%%%$.%$$.",
".%%$$%$$$$$%$$$%$$<%-&<--<<$---%-%-<<< <<<-<-$-%%%$--<<+<-<%-$--<<---<<<<%$..%$$%$$$%%%$%$$$%$$.....",
"%%$.%%$$$$$$$$$.%<<$-%<<%<<-%-<-%-<<-<-%<----$%%%$<-<<<+<-<$-<$<<<<-%<-<--$--$$<$$$%%%$%%$%%.$$.....",
".$$%%%.%$$$$$$<<-<-$%%-<<<$$-$%%O$$--$-<<%<$%-$$%%*%<<++O<%-<<<<%-<%<<<$-=<---<<$<$$$$$%%$%$$$$.$...",
".$$%%$$%$$$$$$<%<-<<$$%-<<$%$$$%%$%-$<<<-%%$%%%$$%&+$<++%%O-<<<-<<<<<<<$$$-<-<<$$<$$$$$%$$$.$$..$$.$",
".$$%$$$$$$$$-$$<<%<-<$$$%%$$-<%%$<$$$$%%-%-%$--o$o$$>&++$--<--$-<-<-<%.%<<-<%<<<<<$$$$$$$$..$...$$.$",
".$$$$$$$.$$<-$$<<-%-<-<$$$-$%<<$$==$$,,,$,=$$>-@-o$@o&++%%$$$-%<-<%<$$$<%-<-%<<<<$$$$$$.$$...$$$..$$",
"$$$$$$$$$$$<<$-<-<-%<<<<$$-&-<<$$==$$,,,,,$&&>@@@oooo&%o%%%$$<<<-<$<<<%<<%<<--<%<$<<.$$.$$....$$$$$$",
"$$$$$$$$$$$<<<--<<-<<<<<<<&-<-<-$<<$$,,,,$$&&>@@>>oooo&,$,$<$$,%%$$$<%-<<%<<<-%<<<<..$$$$$.....$$$$$",
"$$$.$$$$$.--<<<--$-<<<%<<<<-<<--<<<,,,,,,,,,o>@@@@@@@>o,,,,$$$%,,,,,,%<<<<-<<<%<<-%..$$$$..$$$$$$$$%",
"$$$.$$.$$<<---<$$<-<$-<-<<<-$--<<<--,,,,,,,,o>o@@@@>>>o,,,,,,$,,,,,,,%<<-<<-%%$<<<%$$$$$$.$$$$$$$$.$",
".$$$$$$$$$<<.<--%<<-<<<<-$<-<$$<---<<,,,,,,,o>o@>>>@@>@o,,,,,,,,,,,<<-<-%-%<-$<<%<$<$$$$$$$$.$$$$$$$",
"$$#$$X$$;$$<<<$---<-<<<%<<$<-$%-<-,,,,,,,,,o@>@o>@>>@>>>o,,,,,,,,,,<%<-<<%%<%%-%-<-<<$$$$$$$$$..$X..",
"$:$$#$$$;$$%<$%$--%<$<$<-%-<---$<<<,,,,,,,,@@@>@>>>>>@>>o,,,,,,,,-,,<<%<-<%<$<%<<-<%<$$$$..$$$$$#$#.",
";:$$X$$;;;<$%$%--%<<--<<%<<%--$<$<%,,,,,,,,@@>o@>@>>>>>@o,,,,,,,<-,,<<-%-<-<$<<-<%<<.$-$$..$$$$$#$$#",
";:$$X$$;;#<<X$%%---<<-<$<-<<%-<<$%,<,,,,,,,@@>@o>@>>>@>>o,,,,,,,<<,-<-<-%<<<<-<-%-<<$$-<$.$$$#$$#$$#",
";:#:#XX#;;<<;%$%$$<--$<$<<--<-<<$,<<,,,,,,,>@@>@@>@@@@>>o,,,,,,,<<<--<<-<<<<<<<%-<-<-$<<$;$#;;$;#X##",
";;#;#XX##;-<$<%%%-<-<<<%<<-<<$<$%,<<,,,,,,,>>@>@@@>>o@@>,,,,,,,--<<<--$-<<<%<<<<-<<--<<<$;$;XX:;#X##",
"#;##:#XX<<;-<<$%%--<$<<--<-<-<%%<$<-,,,,,,,>>@@o>>>>@o@@,,,,,,<<---<$$<-<$-<-<<<-$--<<<--;$;XX:;#X##",
"##:#;#XX-<<%<-$$%<<-$%<<<$<-<<%<<<-,<<,,,,,@>>@o>>>>>o>@,,,,,,,<<,<--%<<-<<<<-$<-<$$<---<<#XXX:;####",
"##:##:#XX--$<-%-$<<-%--<<<-<<<$$-<%<<-,,,,,@>@@o>>>>@o>@,,,,,,,,<<<$---<-<<<%<<$<-$%-<-;:;;XX:;;#X##",
":#:###:X---<<%-$---<<<<<<-$-%<<%--<<%,,,,,,@@@@@>@@>>>@>@,,,,,,,%<$%$--%<$<$<-%-<---$<<<;#;XX:;##X##",
":X--;##-<<%--%-<<%<-<%-<<<----$-%<<-,,,,,,,@o@>@>>@@>>@>>o,,,,,<,%$%--%<<--<<%<<%--$<$<%;#::;;#;XXX#",
":-%%%--<<<%%%%--<<<<%%<-<$--%%--%--%<,,,,,,@@@>@>oo@>>o@>@,,,,,<<,$%%---<<-<$<-<<%-<<$%#<;:;;;##X#X#",
"--%<<%<<<$$%%<$-%-<<%$%<$%-$-%--%%%<<,,,,,,@>@>@>@oo>>@oo>,,,,,<<,%$%$$<--$<$<<--<-<<$#<<:;;;###XXX<",
"---<<<<<%%$$%<<-%<%<$$$$$%$--%-$<<%<<,,,,,,o@>@o>>@o>>>@>>,,,,,-<$<%%%-<-<<<%<<-<<$<$%-<<;;##;#XXX<<",
"---<--<<<%%$%<<-<-<-%$$$$$%%-%-<<<$<%%,,,,ooo>@o@--o--@>@>o,,<<,-<<$%%--<$<<--<-<-<%%<$<-;;#;##XX<<<",
"<<<----<<%$--%<$<<%--$%$$%-%-<-<<%<%%<,,,>>--@>@-<<%---@@@>>o-<<%<-$$%<<-$%<<<$<-<<%<<<-:<<#;#X$$<<$",
"<<<--<<<<%%%<$-<-<-$-$%%$--%<<$<%<<$<<,,o>-%%%--<<<<---@--o>>,--$<-%-$<<-%--<<<-<<<$$-<%<<-###$$$<$$",
"---<<<<<<%%%%<-<<---$$%%$-$-<-<-$<<%%,<<>--%<<%<<<<<%<<---<<>,,-<<%-$---<<<<<<-$-%<<%--<<%%##$$$$$$<",
"--<-<<<<%$$%$<<$<-$-$%$%%$--$<<$-%<<$<<<----<<<<<--$<<<<-<<<<>o%--%-<<%<-<%-<<<----$-%<<-<<%$$$-%%--",
"<<<--<<<%%$%%$<<---%%$--%$-$-<$<<$%$<<<-----<--<<<%-<<<<<<----<<%%%--<<<<%%<-<$--%%--%--%<%%$%%%<---",
"-<<<-<<<%<$%%%$$$---%%--$%%---<<$%$$<<$--<<<----<<<%--$<<-----<<<%<$-%-<<%$%<$%-$-%--%%%<<-<%%%<----",
"<<<<<<<<<%%$%%--$$$-%-$-%%---$$$%$$$<$$-<<<<--<<<<<<<%<<<------<<<<<-%<%<$$$$$%$--%-$<<%<<<<%%<<--<-",
"<<<<<<%<<<%%$%%--$-$--$$%%-$%%--$$$$$$<<<---<<<<<<-<<<<<<<<<<%-<<<<--<-<-%$$$$$%%-%-<<<$<%%<-$<<---<"
};
