/* XPM */
static char *_c47d9507679443187e3696ac1ed97b5KDNngtNTCTEX5oiC[] = {
/* columns rows colors chars-per-pixel */
"100 100 22 1 ",
"  c #1B1F21",
". c #291D2B",
"X c #2A1F2C",
"o c #3B2027",
"O c #3D2936",
"+ c #52333F",
"@ c #7D3833",
"# c #283540",
"$ c #4F1D4C",
"% c #511F4C",
"& c #781D4F",
"* c #781F50",
"= c #2F5753",
"- c #3B7D4F",
"; c #AB5130",
": c #E64539",
"> c #CF752B",
", c #AD2F45",
"< c #35960B",
"1 c #3A9813",
"2 c #63AB3F",
"3 c #6FA8DC",
/* pixels */
"==33333333333333333333333333333333333333333333333333333333333333333333333333333333333333333333333333",
"==33===333333333333333333333333333333333333333333333333333333333333333333333333333333333333333333333",
"== ===333333333333333333333333333333333333333333333333333333333333333333333333333333333333333=333333",
"# ===  3333333333333333333333333333333333333333333333333333333333333333333333333333333333=====333===",
"#===# =3333333333333333333333333333333333333333333333333333333333333333333333333333333333=====33====",
"===# == 3#33333333333333333333333333333333333333333333333333333333333333333333333333333   === ===  #",
"=#= =======3#333333333333333333333333333333333333333333333333333333333333333333=33333#-=======--==# ",
"==- ==#====##===33333333333333333333333333333333333333333333333333333333333=33==3#33#--====-=---====",
"==-#=##=#==#===3   #3333333333333333333333333333333333333333333333333333333==3==3#-#---== =-=---=---",
"=--#=--=###===###=-# =##3333333333333333333333&33333333333333333333333333#  = = =--=2-=22--2=-=== #=",
"#- #---=#=====-#=--#= #  33333333333333333333&&3333333333333333333333333===   ----=-22=22-22===---##",
"=-=######=====-----#==   333$3333333333333333&&3&,333&3&333&333333333#3##=== 2=---=-22-22-222=22----",
"==---=#= ====#=---==-- == 3$$$333333333$$33&&3&&&,,&::&:333&::&33333&# ==#2222--2222222---2-= -  ---",
"=---=======---==-##=#:==#&&$$$$$&333$$3$$$3$&&&&&::::&::,,,:::&33#&&&# ===2-22-2222222222222222---2 ",
"-= ##======----===--::===:&#&&$$&&3&$$3$$$3$&&&,,::::::&,,:::&33$&&&& 2222-=-----2222222222222------",
"2-==# =####====#-$--::=:::&&:&:,&&&&&$$&$&&333&,,,,:::::,:::::::::&&&&&&$$2-22222222222 2--22--2222=",
"#---# ==##=--#=-=$=&:: :::::::,,:&:&&$$&&&$&&$$&,,:::::,,,::,::::::& &&$$$2-222222-2222222222--222--",
"=--  ==# =--#=---$::::::::,::::,:::&&&,,,&&&&&&&&::::&:$,,,:::&::::&:,$$:::$$2-2222222-2222222--2---",
"--==    =====----$$::::::::::::::::&&&,,,&&&&&&,,::::$$:,,,:::,:&:::&&,&:::$$22222222-2222=222222222",
"--===   ==##=--$$&&::::&::::::::::::::,:,,,&&&&&,::,::::$&,:&:&&::&&,&,,:::::&222222-22-22-2 =222222",
"- ==  ===#  =-22$&&&&:$:::::::::::,::,,,:,,,&&&,&:::::&:::&,&:&&::,,:,,,::::::&,,:22-22222222--2--==",
"===    =-==2=222$&:::::::,,:,,:,:::,,,,,::,&&,,&,::,::::::&&,,&&&::&::::::&:$,,,&&-2&2-222-2222222-=",
"== =-==--=222=222$-$::::::,::,,,,,:,,&:&,&:&&&,,:,,:::,:::::,&,:,,:,,:,,:::&&,,&,&2-&&-222 2222222-=",
"====-- --==2222&&::::::::::,::::,::,,,&,:,,&&&,&,,,,,,,::&&,,:&::::&&,:::$$,&,,,,,&&&&&&22 ==22=-2-=",
"===-=2=-222-=22&&:::::::::::::,,,::,,,&,,,&&&&::$:::,,,&:::&,,:&:::,,:::::,&&,,&,$&&&&&222=2====- ==",
"=---=22222222$$&&&&&::,:::::::::,::,:::&&&:&&&&:,&,:,:,&:,,&,,:,,:::::,:::&::&&:,:$&&&&&22=2=====2==",
"-=---22222222&&&&&&&:&&::::::::::::::&,&,:&&&&&&:&&,::&&&,&:&,,,:::&:::::::::,&:::&&&&&&2==2=== =22=",
"-=22--222--2$2&&&&&&,,,:,:,:::,,::::::::,,:::::,&,,&&&&,,,::,&,,&,,:::,:::::::&:::::::&$=$  === =22=",
"--2222-22222$$2&&&&&&,,,&:,:,:,,:::::::&:,:&:,&,,&,:,&&,,:&&,,,&,&,&:::,:::::&::::::::&=$$-==2222=--",
"22-2222222$$2-$&&:$,,,,,&,,,,&,,,,:,&,&,&,,:&::,,,&,&&&,,,,,&,&,:,,&&::,,,::,,:&:&:::::::&-=22=222 -",
"22-----222$$$&&&&:,,,,,,&,,&&&,::&&:&$&,&&,&,::::,,&&&,,,&:,&,,,&,,&&,::,::::,,::,:::::::&$$22--222 ",
"-22-2222& 2$$$$&&:::::,,,:::,,&,:::&::&&&:,,&&,,,,,,&,&,,&,,,,,,,,&&&,,,::,,&,,&:&::::&&&&:2&&222=2-",
"-=--2222&-$$$&&&&:::::&,,,:,,,&:&:::,,,:&&&,:,,::::,,&,::,,,&,,,,,&&&,:::&,&:&,::,,,::&&,,&&&&22 22-",
"-=--2222&--2$&&::::&::&,,::,,,:::::&,:::&&&&:,,::&&:&,&:&,&&&&,,,,,&&::::::::&&,:::,&:&&,,&&&&22222-",
"-=--222=&&&&$&&&:::::&,&::::::::,:::::::&&&,,,,,&:,&,,:&:,&&&&$,&&,,&:::::::&:::&&,,&$&,,&&&&&&&22= ",
"==-22$&&&&,,&$&&&:&:&&,,,:::&&,,::,,::::::&:::,,,&&,,&,,,&,,&&,,,,&:$,,&:::::::::::&,,,,,,:&&==-2-  ",
"-====$$&&&,,,&&::&:&&&,,,::&&,,,&,,&:::&$,&:::,,,&,:&&,:,,,,,,,,,,,:,$&&&,,:::,,:&::&,,,&:&&&&--2 --",
"-=-$$$$2&&,,,,,&&:::::,&&:&&&&,,,,&,,,:,&&:::::,,&:::,:&,,,,,,,,,,,,:&:,,,&:&:,:::,&&,::,,&&22=22= =",
"-=-$$&&&$,$,,,,:::::,::::&,&&&,&,,,,,,,&,&::::::&$::::::,,,&,,,,,,,,:,:&,,,&,,::,&,:,&,&&&&-&& 22  2",
"==-=-$$&&,,,,::::::::::,:,&&:,:&&&,,,,,,,,:::::&&&::,:::&$,&&&,,&,:&&&,,,&&,:&,&&:,&,:::,,,::&&2 -22",
"--=-$&&$&&,,,,::::::::,::,&,:::&,,,,,,,,,,&&&:&&:&,::&::,&&,&&,,,&,,&&,&,,,:&,,,::&::&:::&:::&--2222",
"---$&&&&&&&,&&&,&:,:::::::,:::::::&,,,,,,,:::&&&&&&::::,:&:&$,&&,&&,,,&&&:&:,::,&&::&,&,,::::::&222-",
"---$$&&$&,&&,&&&&,,,::::::,:::&::::,,&,,,,,:::&:&&$&&,,,:,:&,,,&,,,&,,,,,,,,,,,,,,::&,&&,:::::::&2--",
"-=---$$&&,,,,,,&&,&&::::,,::::,,:&$,,&&,,,:::::&&::&&::&,::,,,&,:::,&,,,,&&:,,,,,,:::&$,:::,::&&=---",
"-==$$$$&$,,,,&,,,,&::&::,&,,::&,:&,$&$&,::::::&::&$$&&,,:&&&,,,:,,,,,&,&,,&,,,,&,:,,,:,$$,:::&$2----",
"-$$$$$$$,,,,,&,,,,&:::,,:&,,:&:&&,:&&&,::::::::::::$,,&,,,&,&,:&::,:,,&:::,,,,,,,:::,,&&$,,:::-2----",
"-----$$$,,,,,,,,,&&:&:::&&::&&,,:,&,&,:&&,,:&:&:::::,,,&&&&,,,,:,,&,,:,,,:,&,,::::::::$&::&$$$----=-",
"------$$$$,2$,,,,:::&:::::&:&&&&&,,&&,&,::,,&&&::&&,,,,,:&&&,,&,&&:&&,,,&,::,:::::::::::,:&$$-------",
"-----$$$$$$2$,,,,&&,:::,::::::&&,&,,,,,::,,,,&&&:&&&::,:,&&&::,,,&&&&,&,:,&:,::::::::,::::&$$$$$----",
"-=--2$$$$$$$$,,,,,&&::,,::&:::,,:&&,,,:&&,,,,,,&::::,,&,,:,,,,,,&&&&&&:&:,,,:&:$::&,&,::,::,$,$-==--",
"-----2$2$$$$$,,,,:,&,,,,&&,&&:::,&,,:,,,,,,:,,,&:::&,&&,,,,:::$,&&:&&&&:&,&,:,::&:,&:,:::,$$,,=&&=--",
"=#---$$$$-$$,,&:,,,:,,,,&:::,,&,,,:&,:,,::,,&:&:::::,,:&&,,,,,::&::&&:::&,:&&&&:::&,,&,::&,,,,&&==-=",
"==2 2$$$&$,,,,&:::,&&&&,&:&&,,:,,&,:$:,,,::,:&:::::::,&::,&,&,&$&:::&::::&,,&&:,,,,:&,&&&&,,,,,,&===",
"==222$$$&$$,,$,,,:,&&,,::&,,&,:,&,,&,:&::&::::::::::,,,::&&,::$$&:::&&:::,&,:,&,,&:&,,::&&,,,,,,,&&#",
"==2=$$$$&&&&$,,&,,:,,,:,,&::&&&,,,,::,,::,:::::&:,::,:,&::,:&,,&:::::::::::&:&,&,,,,,:&&&$$,,,&-&&&-",
"22#=2$$$&&&&&,,,,&,,,&,,,:&,&&,&&&,:::::::,::::,&:::,,,,:::&,,,,::::::::::::&:,,,,,,,,&&&&&,,,&&&--#",
"222#=&&&&&&$$$&:&,,&,,:&&::,,,,&::,&&,:,,:::,:::,&&,&::,:,,,:,:,::::::::::,,,&:,,,&,,,,&,&&,$$$&&-=#",
"##222$&&&&&$&$&,,:&&&,::&:&,,,,&:&&::,,:,,:&:::,:,,,::::,,&&:,:,,,::&::,&:::,:&,::,$,,&,&,,$$$-$-=##",
"2#2$$$$$&&$$$,,&&,,:,,&,,,,,,&,&,:::::::::,:,,,::,,:::,::&,,:,:&::::,:,,,&:,&,,:,,,&,,,,,&,&$$$$$=  ",
"#22$$&&&&$&&$,,::&&,&&::$,,&,,,&,,:::::,&::,,:::&::::::::&&,,:::::::&::::&,&,,,&&,:,,&,,,,,,,&$# ###",
"#2$$$$$&&&&$,,,:,&,,,&:&&,&,&&&&::&::::::::&,,::::::::,:::::&:::::::&:::&&&,,,&:&&&,&&,,,&,,&&&$#===",
" 22#=&&&&&&&&&&,,&,&,:,::,&,$:&&:,&&,::::::&:::::::::::,::::::::::::,::::&&&,&&,:&&&&&,$,,&&--- ====",
"###$&&&&&&&&&&&,,&,&&:,&&,&&&:&&,:,&&:,::::::::,::,:,::,:&::::::::::,::::::$,&$&&:&&&&&&&,&&#===####",
"#===$$&&&&&&&&&&&&,,&,&:,,,::&&&,:::,,&,&,:&,::::::::,,,:,,:::::,&,&,::::::&,,::::&&&:,,$,$$#=,, ## ",
"##=$2&&&&&&&&&&&&&,&,,::,&,&&,::&,,:&,,&,::&,::,::::,:,&,,,::,::&,&:,:::::,&,::::$&,,::,:,$$$:::=###",
"# $$$$$&$$&&&&&&&&$$,,:,&&,,&&,:&&:,&,,&,:&,,:::&::::,&::,,:::,&,&,:,:::::,:&:::::::,::$:,$$:,:,=## ",
" $$$#&&&&$&$&&&$&&&&,,&,&&&,,:&&,:,&&,&:&,,,:::::::::::$&,,,::,,:,:&,&::::,,,:::,::::::::$$:::,:,,, ",
"==# $$&&&$#&&&&&$$,,,,,&,&,&,:&&,,,,&&,&:,::&&::,:::::::$&,:,&,,,:&,,::,,,,,:,:::$,,::::::$:::::::, ",
" ##=$&&&&&&&&&&&&,,,,,&,,,&&&&::&&&&&,,&:,,,&&,,::,:::::::&,,,&,,,,,:::::,:,,,:&::$,::::$$:::::::   ",
" ##&&&&&&$&&&&&&&,,,,,,,,,,&&&,:&,$&&&,,,:&&&,&,:,,,:::::,,&,,&,,&:,,,:::,,:&&,&&&$,,,:$,$$$::,:## #",
" ##=##&&#&&&&&&&&&&&,&&,,,,,,&:,&:,,&:,,,,&,&&&&&,,,,,:,:::,,&,:,,,::::::$:::,,,&&,,:::,::$,,:  ## #",
" ####### #&&&&$$&&&$$$&,&,$&$&&.,&,,:&:,,,,,&,,::&&&&,:,,&:,:,,,,,,&,,:::,:::::,,,:::::,,:::,,,,  ##",
"##########&&&$$&$&&$$$$&&,&&$&&:,&&:&,:,,,&,,,,&,&&,&&,,&:,&,,:,,,,,,,::&,::::::,,:::::,:::,,,,,,###",
"#########&&##$$$.&$$$$$$$&&$&$&&.&&&,,&&,,,,,&,::::,,&&::,&,,,&&,::,,,,,&$:::,&,,,,,:::,:::::, #####",
"### #####&&&&#&$$&$#$$$&&&&&$&&&&&&&,:&,,,&,,,,::&&:,,&:&&,,,&:,,&,,,,,,,$$::$$,,,,,:::$::::::#####=",
"### ## ###&&&$$$$$#$&.&&&&&&$&&&$&&$&:&,,&&,,,:,,&,,:,,,,,,,&&::,,$,,&,,,$&&:$$,,,,,::,,::,:::#### #",
" ########&&&$$$$$&$$$.&&&&&&&&.$$$.&&$&&&&&,,,.&,:,&,:&,:,,,,,&&,,,,&,&.&&$$$$$#$,,$,,$,:::# #######",
"##@##o##&&&&&$$$$$$$$$...&&$&&&&&.$&&$$&&&&&,,.&&,&,,,,&,::,$,,,,,,&.,&&&&&&$$##$$,,,,$,,,:###  #o  ",
"#>##@###;#&&&&&$$&$$$$$$$&.$&&$&&&$..$$.&&&$..&.&.&,&&,:,,,,$$,,$$$.&$&$&&&&&$$$$,,$,,,,, ,#####@#@ ",
";>##o##;;;&&&&&$&$$$$$$$$$$$&&&$$&&$.$&&&&&$&&&.....&,&:,,,$$$$$,$..&$$$&&&&&$$ ##$,,,,,,,,#####@##@",
";>##o##;;@;#o$&&&&$&$$$&$$$$$$&&$$$&&&&$&&&&&&......,,.,,$,$,,$$$...$$$$$&$$<$$$$$ ,##,,, ,,#@##@##@",
";>@>@oo@;;@;;>&&&&<&$$$&$$$$$$$$$$$$&$.&&&&&&&&&....,,,,,$,,,,$$$...<$$$$&<$<$$$$$####,,,,#@;;#;@o@@",
";;@;@oo@@;;@;;>o<<<&&&&&$$$&$$&&$$$%$&&<...*&&&.......,,,,,,,,.$....<$$$<<<<<$$<<## ## ##;#;oo>;@o@@",
"@;@@>@oo@@;@@;;>o<<<<<<<<<&&&<&&&$$&&<<<<<...&&.......,..,,,,,,....<<<$$<<<<<<<<<##<##>##;#;oo>;@o@@",
"@@>@;@ooooo;@@@@;;>oo<<<<<&<&<&&&&$&&<<<<<...............,,,.......<<<<<<<<<<<<<<#<<<@>>>;@ooo>;@@@@",
"@@>@@>@oooo@@@@@@;;;>oooo<&<<<&&&&&&&<<<<<<.XX...........,.,......<<<<<<<<<<<<<<<<<<@>;;>;;oo>;;@o@@",
">@>@@@>o--o--@@@@@@;;;;;>o<<<<&&<<<<<<<<<<<<.................<<$<<<<<<<<<<<-<<<-<<2@>;@@;@;oo>;@@o@@",
">o--;@@-22=---ooooooo@@@@@;;>oo&<<<<<<<<<<<<..X.......O.....<<<<<<<<<<<2<22=2-=22-;2@@@;;@>>;;@;ooo@",
">-===--2222---<--<<<ooooo@@@@@<o<<<<<<<<<<<<....O.O..O..O<<<<<<<<<<<<<--<222==2222-2@@@@@;>;;;@@o@o@",
"--=22=22222=22---22<<<<<<<<<<<<<<<<<<<<<<<<<XO..O.O..OO.O<<<<<<<<<<<-<222#--2-22=-2-2@@@;>;;;@@@ooo2",
"---22222--#2222-2222<<<<<<<<<<<<<<<<<<<<<<<<.OX.O.OO.OO.O<<<<<<<<<<22=#--22-=-2=---22--;>;;@@;@ooo22",
"---2--222=-222222----22<<<<<<<<<<<<<<1<<<<<<XOXOO..O.OO.O<<<<<<<<<-2-#-#-#--22=2--2-2o->>;;@;@@oo222",
"222----222=--#22-----222<<<<<<<<<<<<<<<<<<<..O..O..O.OO..<<<<<<<-=<=--=-222=-222-222=-22>;;@;@o##22#",
"222--2222222=222------222<<<<<<<<<<<<<<<<<<.O...O+.O.OO.O<<<<<<<<#-==--=##=--#222222-=---2;@@@###2##",
"---222222-2222222222=-2222-<<<<<<<<<<<<<<<<...O.O+.OO.O.O<<<<<<<-=--#=-#=#=-=#22=22---222-=@@######2",
"--2-222222-222--2--2222222=22<<<<<<<<<<<<<<..XO.O+.O+.O..<<<<<<--==#==#=-==--#=-=2--2--2=22=###-==--",
"222--222=2222-------222---2222<<<<<<<<<<<<.O..O.OO.O+.O+.+<<<<--==#=---=-==--#-2#2--222--2==#===2---",
"-222-222=2222-2-----2-222-22222<<<<<<<<<<<.OX...OO..O..+.O<<<<2##-===-=#-=22==222#22##-222-2===2----",
"22222222222--22--22--22222----2<<<<<<<<.X...O..OO+...+.O+.O+<<2#-#=-==--=-#==#--2=-2222=2=22==22--2-",
"222222=222----2-2222-222222----<<<<<<<<...OO.....O+..+.O...O<<<2--2=###=2-=2#=-=--#2=22#=-22-#22---2"
};
